<svg width="12" height="13" viewBox="0 0 12 13" fill="none" xmlns="http://www.w3.org/2000/svg">
<path d="M9.92157 11.6429C9.92157 12.0019 10.2126 12.2929 10.5716 12.2929C10.9306 12.2929 11.2216 12.0019 11.2216 11.6429H9.92157ZM8.28585 8.21432V7.56432V8.21432ZM3.71443 8.21432V7.56432V8.21432ZM1.42871 10.5H0.778711H1.42871ZM0.778711 11.6429C0.778711 12.0019 1.06973 12.2929 1.42871 12.2929C1.7877 12.2929 2.07871 12.0019 2.07871 11.6429H0.778711ZM11.2216 11.6429V10.5H9.92157V11.6429H11.2216ZM11.2216 10.5C11.2216 9.72143 10.9123 8.97473 10.3617 8.42417L9.44248 9.34341C9.74923 9.65017 9.92157 10.0662 9.92157 10.5H11.2216ZM10.3617 8.42417C9.81116 7.87362 9.06445 7.56432 8.28585 7.56432V8.86432C8.71967 8.86432 9.13572 9.03665 9.44248 9.34341L10.3617 8.42417ZM8.28585 7.56432H3.71443V8.86432H8.28585V7.56432ZM3.71443 7.56432C2.93582 7.56432 2.18911 7.87362 1.63856 8.42417L2.5578 9.34341C2.86456 9.03665 3.28061 8.86432 3.71443 8.86432V7.56432ZM1.63856 8.42417C1.08801 8.97473 0.778711 9.72144 0.778711 10.5H2.07871C2.07871 10.0662 2.25104 9.65017 2.5578 9.34341L1.63856 8.42417ZM0.778711 10.5V11.6429H2.07871V10.5H0.778711ZM7.63585 3.64289C7.63585 4.54627 6.90352 5.27861 6.00014 5.27861V6.57861C7.62149 6.57861 8.93585 5.26424 8.93585 3.64289H7.63585ZM6.00014 5.27861C5.09676 5.27861 4.36443 4.54627 4.36443 3.64289H3.06443C3.06443 5.26424 4.37879 6.57861 6.00014 6.57861V5.27861ZM4.36443 3.64289C4.36443 2.73951 5.09676 2.00718 6.00014 2.00718V0.707178C4.37879 0.707178 3.06443 2.02154 3.06443 3.64289H4.36443ZM6.00014 2.00718C6.90352 2.00718 7.63585 2.73951 7.63585 3.64289H8.93585C8.93585 2.02154 7.62149 0.707178 6.00014 0.707178V2.00718Z" fill="#171D25"/>
</svg>
