<svg width="14" height="13" viewBox="0 0 14 13" fill="none" xmlns="http://www.w3.org/2000/svg">
<path d="M12.263 8.72279C11.8995 9.58249 11.3309 10.3401 10.6069 10.9292C9.883 11.5184 9.02574 11.9213 8.11013 12.1027C7.19451 12.284 6.2484 12.2383 5.35453 11.9695C4.46066 11.7008 3.64623 11.2171 2.98246 10.5609C2.31868 9.90464 1.82577 9.09579 1.54681 8.20504C1.26785 7.3143 1.21134 6.36878 1.38222 5.45115C1.55309 4.53352 1.94616 3.67172 2.52704 2.94109C3.10793 2.21046 3.85895 1.63325 4.71445 1.25993M12.7144 6.49993C12.7144 5.74952 12.5666 5.00646 12.2795 4.31317C11.9923 3.61988 11.5714 2.98994 11.0408 2.45932C10.5102 1.9287 9.88021 1.50779 9.18692 1.22062C8.49364 0.933449 7.75057 0.785645 7.00016 0.785645V6.49993H12.7144Z" stroke="#171D25" stroke-width="1.3" stroke-linecap="round" stroke-linejoin="round"/>
</svg>
