<svg width="22" height="22" viewBox="0 0 22 22" fill="none" xmlns="http://www.w3.org/2000/svg">
<path d="M11.65 5C11.65 4.64101 11.359 4.35 11 4.35C10.641 4.35 10.35 4.64101 10.35 5H11.65ZM11 11H10.35C10.35 11.2462 10.4891 11.4713 10.7093 11.5814L11 11ZM14.7093 13.5814C15.0304 13.7419 15.4208 13.6118 15.5814 13.2907C15.7419 12.9696 15.6118 12.5792 15.2907 12.4186L14.7093 13.5814ZM20.35 11C20.35 16.1639 16.1639 20.35 11 20.35V21.65C16.8818 21.65 21.65 16.8818 21.65 11H20.35ZM11 20.35C5.83614 20.35 1.65 16.1639 1.65 11H0.35C0.35 16.8818 5.11817 21.65 11 21.65V20.35ZM1.65 11C1.65 5.83614 5.83614 1.65 11 1.65V0.35C5.11817 0.35 0.35 5.11817 0.35 11H1.65ZM11 1.65C16.1639 1.65 20.35 5.83614 20.35 11H21.65C21.65 5.11817 16.8818 0.35 11 0.35V1.65ZM10.35 5V11H11.65V5H10.35ZM10.7093 11.5814L14.7093 13.5814L15.2907 12.4186L11.2907 10.4186L10.7093 11.5814Z" fill="#171D25"/>
</svg>
