<svg width="14" height="14" viewBox="0 0 14 14" fill="none" xmlns="http://www.w3.org/2000/svg">
<path d="M5.0715 13.4358C5.43048 13.4358 5.7215 13.1448 5.7215 12.7858C5.7215 12.4268 5.43048 12.1358 5.0715 12.1358V13.4358ZM1.21436 11.5001H0.564355H1.21436ZM2.50007 1.21436V0.564355V1.21436ZM5.0715 1.86436C5.43048 1.86436 5.7215 1.57334 5.7215 1.21436C5.7215 0.85537 5.43048 0.564355 5.0715 0.564355V1.86436ZM9.11188 9.75474C8.85804 10.0086 8.85804 10.4201 9.11188 10.674C9.36572 10.9278 9.77728 10.9278 10.0311 10.674L9.11188 9.75474ZM12.7858 7.00007L13.2454 7.45969C13.4992 7.20585 13.4992 6.79429 13.2454 6.54045L12.7858 7.00007ZM10.0311 3.32616C9.77728 3.07232 9.36572 3.07232 9.11188 3.32616C8.85804 3.58001 8.85804 3.99156 9.11188 4.2454L10.0311 3.32616ZM5.0715 6.35007C4.71251 6.35007 4.4215 6.64108 4.4215 7.00007C4.4215 7.35905 4.71251 7.65007 5.0715 7.65007V6.35007ZM5.0715 12.1358H2.50007V13.4358H5.0715V12.1358ZM2.50007 12.1358C2.33147 12.1358 2.16977 12.0688 2.05055 11.9496L1.13131 12.8688C1.49433 13.2318 1.98669 13.4358 2.50007 13.4358V12.1358ZM2.05055 11.9496C1.93133 11.8304 1.86436 11.6687 1.86436 11.5001H0.564355C0.564355 12.0135 0.768296 12.5058 1.13131 12.8688L2.05055 11.9496ZM1.86436 11.5001V2.50007H0.564355V11.5001H1.86436ZM1.86436 2.50007C1.86436 2.33147 1.93133 2.16977 2.05055 2.05055L1.13131 1.13131C0.768296 1.49433 0.564355 1.98669 0.564355 2.50007H1.86436ZM2.05055 2.05055C2.16977 1.93133 2.33147 1.86436 2.50007 1.86436V0.564355C1.98669 0.564355 1.49433 0.768296 1.13131 1.13131L2.05055 2.05055ZM2.50007 1.86436H5.0715V0.564355H2.50007V1.86436ZM10.0311 10.674L13.2454 7.45969L12.3262 6.54045L9.11188 9.75474L10.0311 10.674ZM13.2454 6.54045L10.0311 3.32616L9.11188 4.2454L12.3262 7.45969L13.2454 6.54045ZM12.7858 6.35007H5.0715V7.65007H12.7858V6.35007Z" fill="#5629E1"/>
</svg>
