<svg width="45" height="45" viewBox="0 0 45 45" fill="none" xmlns="http://www.w3.org/2000/svg">
<circle cx="22.5" cy="22.5" r="22" stroke="#00C48C"/>
<path d="M30.1307 18.2944L30.1307 18.2944L30.1336 18.2973C30.159 18.3225 30.1791 18.3525 30.1929 18.3855C30.2066 18.4185 30.2137 18.4539 30.2137 18.4897C30.2137 18.5255 30.2066 18.5609 30.1929 18.5939C30.1791 18.6269 30.159 18.6569 30.1336 18.6821L30.1321 18.6835L24.7352 24.0804L24.7338 24.0819C24.7086 24.1073 24.6786 24.1274 24.6456 24.1412C24.6126 24.1549 24.5772 24.162 24.5414 24.162C24.5056 24.162 24.4702 24.1549 24.4372 24.1412C24.4042 24.1274 24.3742 24.1073 24.349 24.0818L24.348 24.0808L21.0405 20.7656L20.6866 20.4109L20.3326 20.7655L16.2541 24.8517L16.253 24.8528C16.2278 24.8782 16.1978 24.8984 16.1648 24.9122C16.1318 24.9259 16.0964 24.933 16.0606 24.933C16.0248 24.933 15.9894 24.9259 15.9564 24.9122C15.9234 24.8984 15.8934 24.8782 15.8682 24.8528L15.8682 24.8528L15.8653 24.8499C15.8399 24.8247 15.8198 24.7948 15.806 24.7618C15.7922 24.7287 15.7852 24.6933 15.7852 24.6575C15.7852 24.6218 15.7922 24.5863 15.806 24.5533C15.8198 24.5203 15.8399 24.4903 15.8653 24.4651L15.8653 24.4651L15.8668 24.4637L20.4927 19.8378L20.4927 19.8378L20.4941 19.8364C20.5193 19.811 20.5493 19.7908 20.5823 19.777C20.6153 19.7633 20.6507 19.7562 20.6865 19.7562C20.7223 19.7562 20.7577 19.7633 20.7907 19.777C20.8237 19.7908 20.8537 19.811 20.8789 19.8364L20.8799 19.8374L24.1874 23.1526L24.5413 23.5073L24.8952 23.1527L29.7447 18.2956L29.7459 18.2944C29.7711 18.269 29.801 18.2488 29.8341 18.2351C29.8671 18.2213 29.9025 18.2142 29.9383 18.2142C29.974 18.2142 30.0095 18.2213 30.0425 18.2351C30.0755 18.2488 30.1055 18.269 30.1307 18.2944Z" fill="#999999" stroke="#00C48C"/>
</svg>
