<svg width="16" height="14" viewBox="0 0 16 14" fill="none" xmlns="http://www.w3.org/2000/svg">
<path d="M13.437 2.23735C13.1229 1.91303 12.7499 1.65576 12.3393 1.48023C11.9288 1.3047 11.4887 1.21436 11.0444 1.21436C10.6 1.21436 10.1599 1.3047 9.74939 1.48023C9.33885 1.65576 8.96584 1.91303 8.65168 2.23735L7.9997 2.91012L7.34771 2.23735C6.71313 1.58256 5.85246 1.21469 4.95504 1.21469C4.05761 1.21469 3.19694 1.58256 2.56237 2.23735C1.92779 2.89215 1.57129 3.78025 1.57129 4.70627C1.57129 5.63229 1.92779 6.52039 2.56237 7.17519L3.21435 7.84795L7.9997 12.7858L12.785 7.84795L13.437 7.17519C13.7513 6.85102 14.0007 6.46613 14.1708 6.0425C14.3409 5.61888 14.4284 5.16482 14.4284 4.70627C14.4284 4.24772 14.3409 3.79366 14.1708 3.37004C14.0007 2.94641 13.7513 2.56152 13.437 2.23735V2.23735Z" stroke="#171D25" stroke-width="1.3" stroke-linecap="round" stroke-linejoin="round"/>
</svg>
