<svg width="16" height="16" viewBox="0 0 16 16" fill="none" xmlns="http://www.w3.org/2000/svg">
<path d="M14.0416 2.70795C13.6925 2.3476 13.2781 2.06174 12.8219 1.86671C12.3657 1.67167 11.8768 1.57129 11.3831 1.57129C10.8893 1.57129 10.4004 1.67167 9.9442 1.86671C9.48804 2.06174 9.07359 2.3476 8.72453 2.70795L8.0001 3.45547L7.27567 2.70795C6.57058 1.9804 5.61428 1.57167 4.61714 1.57167C3.62 1.57167 2.6637 1.9804 1.95862 2.70795C1.25353 3.43551 0.857422 4.42228 0.857422 5.45119C0.857422 6.48011 1.25353 7.46688 1.95862 8.19444L2.68305 8.94195L8.0001 14.4284L13.3171 8.94195L14.0416 8.19444C14.3908 7.83425 14.6678 7.40659 14.8568 6.9359C15.0459 6.4652 15.1431 5.96069 15.1431 5.45119C15.1431 4.94169 15.0459 4.43719 14.8568 3.96649C14.6678 3.4958 14.3908 3.06814 14.0416 2.70795V2.70795Z" stroke="#1A1A1A" stroke-width="1.3" stroke-linecap="round" stroke-linejoin="round"/>
</svg>
