<svg width="20" height="20" viewBox="0 0 20 20" fill="none" xmlns="http://www.w3.org/2000/svg">
<path d="M4.23967 12.8572L4.73114 12.9492C4.75112 12.8424 4.73578 12.732 4.68743 12.6347L4.23967 12.8572ZM3.57144 16.4287L3.07997 16.3367C3.04963 16.4989 3.10123 16.6656 3.21789 16.7822C3.33454 16.8989 3.50124 16.9505 3.6634 16.9201L3.57144 16.4287ZM7.14287 15.7604L7.36539 15.3127C7.2681 15.2643 7.1577 15.249 7.05091 15.269L7.14287 15.7604ZM15.9286 10.0001C15.9286 13.2744 13.2743 15.9287 10 15.9287V16.9287C13.8266 16.9287 16.9286 13.8266 16.9286 10.0001H15.9286ZM4.07144 10.0001C4.07144 6.72584 6.72575 4.07153 10 4.07153V3.07153C6.17347 3.07153 3.07144 6.17356 3.07144 10.0001H4.07144ZM10 4.07153C13.2743 4.07153 15.9286 6.72584 15.9286 10.0001H16.9286C16.9286 6.17356 13.8266 3.07153 10 3.07153V4.07153ZM4.68743 12.6347C4.29329 11.8416 4.07144 10.9475 4.07144 10.0001H3.07144C3.07144 11.1053 3.3306 12.1515 3.79191 13.0798L4.68743 12.6347ZM4.06291 16.5206L4.73114 12.9492L3.7482 12.7653L3.07997 16.3367L4.06291 16.5206ZM10 15.9287C9.05262 15.9287 8.15848 15.7068 7.36539 15.3127L6.92035 16.2082C7.84863 16.6695 8.89477 16.9287 10 16.9287V15.9287ZM3.6634 16.9201L7.23483 16.2519L7.05091 15.269L3.47949 15.9372L3.6634 16.9201Z" fill="#171D25"/>
<path d="M7.14288 10H7.15003" stroke="#171D25" stroke-linecap="round" stroke-linejoin="round"/>
<path d="M10 10H10.0071" stroke="#171D25" stroke-linecap="round" stroke-linejoin="round"/>
<path d="M12.8571 10H12.8643" stroke="#171D25" stroke-linecap="round" stroke-linejoin="round"/>
</svg>
