<svg width="24" height="24" viewBox="0 0 24 24" fill="none" xmlns="http://www.w3.org/2000/svg">
<path d="M5.4729 15.2384L5.96437 15.3304C5.98435 15.2236 5.96901 15.1132 5.92066 15.0159L5.4729 15.2384ZM4.71558 19.286L4.2241 19.1941C4.19376 19.3562 4.24537 19.5229 4.36202 19.6396C4.47868 19.7562 4.64537 19.8078 4.80753 19.7775L4.71558 19.286ZM8.7632 18.5287L8.98571 18.0809C8.88842 18.0326 8.77803 18.0173 8.67124 18.0372L8.7632 18.5287ZM18.787 12.0003C18.787 15.748 15.7489 18.786 12.0013 18.786V19.786C16.3012 19.786 19.787 16.3002 19.787 12.0003H18.787ZM5.21558 12.0003C5.21558 8.25267 8.25364 5.2146 12.0013 5.2146V4.2146C7.70136 4.2146 4.21558 7.70038 4.21558 12.0003H5.21558ZM12.0013 5.2146C15.7489 5.2146 18.787 8.25267 18.787 12.0003H19.787C19.787 7.70038 16.3012 4.2146 12.0013 4.2146V5.2146ZM5.92066 15.0159C5.4695 14.108 5.21558 13.0845 5.21558 12.0003H4.21558C4.21558 13.2424 4.5068 14.4179 5.02514 15.4609L5.92066 15.0159ZM5.20705 19.378L5.96437 15.3304L4.98143 15.1465L4.2241 19.1941L5.20705 19.378ZM12.0013 18.786C10.9171 18.786 9.89356 18.5321 8.98571 18.0809L8.54068 18.9765C9.58372 19.4948 10.7592 19.786 12.0013 19.786V18.786ZM4.80753 19.7775L8.85515 19.0202L8.67124 18.0372L4.62362 18.7946L4.80753 19.7775Z" fill="white"/>
<path d="M8.76318 12.0003H8.77128" stroke="white" stroke-linecap="round" stroke-linejoin="round"/>
<path d="M12.0013 12.0003H12.0094" stroke="white" stroke-linecap="round" stroke-linejoin="round"/>
<path d="M15.2394 12.0003H15.2475" stroke="white" stroke-linecap="round" stroke-linejoin="round"/>
</svg>
