<svg width="18" height="17" viewBox="0 0 18 17" fill="none" xmlns="http://www.w3.org/2000/svg">
<path d="M2.33398 16.5L3.16732 16.5L3.16732 5.66666L2.33398 5.66666C1.89196 5.66666 1.46803 5.84226 1.15547 6.15482C0.842914 6.46738 0.667317 6.8913 0.667317 7.33333L0.667317 14.8333C0.667317 15.2754 0.842913 15.6993 1.15547 16.0118C1.46803 16.3244 1.89196 16.5 2.33398 16.5ZM15.6673 5.66667L9.83398 5.66667L10.769 2.86C10.8524 2.60951 10.8751 2.34279 10.8353 2.08179C10.7954 1.8208 10.6942 1.57301 10.5398 1.35883C10.3854 1.14465 10.1824 0.9702 9.94739 0.849861C9.71239 0.729523 9.45217 0.666734 9.18815 0.666665L9.00065 0.666665L4.83398 5.19833L4.83398 16.5L14.0007 16.5L17.2815 9.2925L17.334 9.04833L17.334 7.33333C17.334 6.8913 17.1584 6.46738 16.8458 6.15482C16.5333 5.84226 16.1093 5.66667 15.6673 5.66667Z" fill="#DADADA"/>
</svg>
