<svg width="14" height="16" viewBox="0 0 14 16" fill="none" xmlns="http://www.w3.org/2000/svg">
<path d="M2.92829 7.28563C2.92829 7.56177 3.15215 7.78563 3.42829 7.78563C3.70444 7.78563 3.92829 7.56177 3.92829 7.28563H2.92829ZM3.42829 4.42848H2.92829H3.42829ZM6.99972 0.857056V0.357056V0.857056ZM10.0711 7.28563C10.0711 7.56177 10.295 7.78563 10.5711 7.78563C10.8473 7.78563 11.0711 7.56177 11.0711 7.28563H10.0711ZM1.99972 7.78563H11.9997V6.78563H1.99972V7.78563ZM11.9997 7.78563C12.5126 7.78563 12.9283 8.20136 12.9283 8.7142H13.9283C13.9283 7.64908 13.0648 6.78563 11.9997 6.78563V7.78563ZM12.9283 8.7142V13.7142H13.9283V8.7142H12.9283ZM12.9283 13.7142C12.9283 14.227 12.5126 14.6428 11.9997 14.6428V15.6428C13.0648 15.6428 13.9283 14.7793 13.9283 13.7142H12.9283ZM11.9997 14.6428H1.99972V15.6428H11.9997V14.6428ZM1.99972 14.6428C1.48689 14.6428 1.07115 14.227 1.07115 13.7142H0.0711498C0.0711498 14.7793 0.934601 15.6428 1.99972 15.6428V14.6428ZM1.07115 13.7142V8.7142H0.0711498V13.7142H1.07115ZM1.07115 8.7142C1.07115 8.20136 1.48689 7.78563 1.99972 7.78563V6.78563C0.934601 6.78563 0.0711498 7.64908 0.0711498 8.7142H1.07115ZM3.92829 7.28563V4.42848H2.92829V7.28563H3.92829ZM3.92829 4.42848C3.92829 3.61389 4.25189 2.83266 4.82789 2.25666L4.12079 1.54955C3.35725 2.31309 2.92829 3.34867 2.92829 4.42848H3.92829ZM4.82789 2.25666C5.4039 1.68065 6.18513 1.35706 6.99972 1.35706V0.357056C5.91991 0.357056 4.88433 0.786008 4.12079 1.54955L4.82789 2.25666ZM6.99972 1.35706C7.81431 1.35706 8.59554 1.68065 9.17155 2.25666L9.87866 1.54955C9.11512 0.786008 8.07953 0.357056 6.99972 0.357056V1.35706ZM9.17155 2.25666C9.74755 2.83266 10.0711 3.61389 10.0711 4.42848H11.0711C11.0711 3.34867 10.6422 2.31309 9.87866 1.54955L9.17155 2.25666ZM10.0711 4.42848V7.28563H11.0711V4.42848H10.0711Z" fill="#1A1A1A" fill-opacity="0.5"/>
</svg>
