<svg width="63" height="32" viewBox="0 0 63 32" fill="none" xmlns="http://www.w3.org/2000/svg">
<g clip-path="url(#clip0_224_22976)">
<path d="M9.19654 5.84502H11.6626V10.5773C11.0313 11.0542 10.2956 11.4221 9.46449 11.6764C8.63338 11.9307 7.79319 12.0579 6.94845 12.0579C5.73585 12.0579 4.65041 11.799 3.68305 11.2813C2.7157 10.7636 1.95725 10.0505 1.40772 9.13313C0.858188 8.22027 0.585693 7.18479 0.585693 6.03122C0.585693 4.87766 0.858188 3.84218 1.41226 2.92478C1.96179 2.00738 2.72478 1.28981 3.70122 0.772069C4.67766 0.25887 5.77672 0 6.99841 0C8.02027 0 8.94675 0.17258 9.77786 0.517741C10.609 0.862901 11.3084 1.36248 11.8761 2.01646L10.1457 3.6151C9.31462 2.73858 8.30639 2.29804 7.13012 2.29804C6.3853 2.29804 5.72677 2.45246 5.14998 2.76582C4.5732 3.07919 4.12359 3.51519 3.80113 4.08288C3.47868 4.65058 3.31973 5.30003 3.31973 6.03122C3.31973 6.75333 3.47868 7.39824 3.80113 7.9614C4.12359 8.52909 4.56866 8.96963 5.1409 9.28754C5.71314 9.60545 6.36713 9.76441 7.09832 9.76441C7.87494 9.76441 8.57434 9.59637 9.19654 9.26483V5.84502Z" fill="#12005E"/>
<path d="M21.5906 11.8581L19.3425 8.61084H16.8628V11.8581H14.1651V0.199829H19.2063C20.2372 0.199829 21.1364 0.372409 21.8949 0.71757C22.6533 1.06273 23.2392 1.54868 23.6525 2.1845C24.0612 2.81578 24.2701 3.56514 24.2701 4.43259C24.2701 5.30003 24.0612 6.04485 23.6434 6.67159C23.2256 7.29832 22.6352 7.77973 21.8676 8.11127L24.4836 11.8581H21.5906ZM20.9048 2.92478C20.4824 2.57508 19.8648 2.39796 19.0564 2.39796H16.8583V6.46267H19.0564C19.8648 6.46267 20.4824 6.28555 20.9048 5.93131C21.3272 5.57706 21.5361 5.07749 21.5361 4.43259C21.5406 3.77406 21.3272 3.27448 20.9048 2.92478Z" fill="#12005E"/>
<path d="M34.9292 9.3602H29.4702L28.4302 11.8581H25.6417L30.8781 0.199829H33.5667L38.8213 11.8581H35.9647L34.9292 9.3602ZM34.0708 7.31195L32.2088 2.84757L30.3467 7.31195H34.0708Z" fill="#12005E"/>
<path d="M47.85 0.71757C48.6085 1.06273 49.1943 1.54868 49.6076 2.1845C50.0164 2.81578 50.2253 3.56514 50.2253 4.43259C50.2253 5.2864 50.0209 6.03576 49.6076 6.67159C49.1989 7.31195 48.613 7.7979 47.85 8.13852C47.0916 8.47914 46.1924 8.64718 45.1614 8.64718H42.8134V11.8626H40.1157V0.199829H45.1614C46.1924 0.199829 47.0871 0.372409 47.85 0.71757ZM46.86 5.92222C47.2823 5.57252 47.4913 5.07749 47.4913 4.43259C47.4913 3.7786 47.2823 3.27448 46.86 2.92478C46.4376 2.57508 45.82 2.39796 45.0115 2.39796H42.8134V6.44451H45.0115C45.82 6.44451 46.4376 6.27193 46.86 5.92222Z" fill="#12005E"/>
<path d="M62.6646 0.199829V11.8581H59.9669V7.08033H54.6714V11.8581H51.9737V0.199829H54.6714V4.79591H59.9669V0.199829H62.6646Z" fill="#12005E"/>
<path d="M38.8849 13.3568L33.6394 25.4738H30.869L25.6417 13.3568H28.6709L32.3587 22.0085L36.0964 13.3568H38.8849Z" fill="#12005E"/>
<path d="M49.494 23.2211V25.4738H40.1111V13.3568H49.2715V15.6049H42.8996V18.2345H48.5266V20.419H42.8996V23.2211H49.494Z" fill="#12005E"/>
<path d="M59.6763 25.4738L57.3374 22.0994H54.7577V25.4738H51.951V13.3568H57.1966C58.2684 13.3568 59.204 13.5339 59.9942 13.8927C60.7844 14.2515 61.393 14.7602 61.8199 15.4141C62.2468 16.0727 62.4603 16.8493 62.4603 17.7531C62.4603 18.6523 62.2423 19.4289 61.8108 20.0829C61.3794 20.7369 60.7617 21.2319 59.9669 21.5816L62.6828 25.4783H59.6763M58.9633 16.1862C58.5227 15.8229 57.8824 15.6412 57.0422 15.6412H54.7577V19.8649H57.0422C57.8824 19.8649 58.5273 19.6787 58.9633 19.3108C59.4038 18.943 59.6218 18.4207 59.6218 17.7531C59.6218 17.0718 59.4038 16.5495 58.9633 16.1862Z" fill="#12005E"/>
<path d="M15.2641 29.6838C15.1642 29.7247 15.0734 29.7519 14.9826 29.7746C14.8917 29.7928 14.8054 29.8064 14.7237 29.8064C14.4603 29.8064 14.2559 29.7428 14.1151 29.6157C13.9743 29.4885 13.9017 29.3023 13.9017 29.0616V28.4303H14.3513V29.0025C14.3513 29.1388 14.3876 29.2432 14.4603 29.3114C14.533 29.3795 14.6374 29.4158 14.7737 29.4158C14.8599 29.4158 14.9417 29.4067 15.0234 29.384C15.1052 29.3659 15.1779 29.3341 15.2505 29.2977L15.2641 29.6838ZM15.2006 30.4286V28.4303H15.6502V30.4286H15.2006Z" fill="#6B3BFF"/>
<path d="M16.2087 30.4286V28.4303H16.6629V29.7292L17.603 28.4303H18.0299V30.4286H17.5803V29.1297L16.6402 30.4286H16.2087Z" fill="#6B3BFF"/>
<path d="M19.0155 30.4286V28.7028L19.1199 28.8073H18.3887V28.4303H20.0964V28.8073H19.3652L19.4651 28.7028V30.4286H19.0155Z" fill="#6B3BFF"/>
<path d="M20.1372 30.4287L21.0137 28.4349H21.4634L22.3444 30.4287H21.8676L21.1454 28.6666H21.3271L20.605 30.4287H20.1372ZM20.5732 30.0018L20.6958 29.6521H21.7086L21.8312 30.0018H20.5732Z" fill="#6B3BFF"/>
<path d="M22.676 30.4286V28.4303H23.1301V29.7292L24.0702 28.4303H24.4971V30.4286H24.0475V29.1297L23.1074 30.4286H22.676ZM23.5843 28.3032C23.3981 28.3032 23.2573 28.2668 23.171 28.1896C23.0847 28.1124 23.0393 28.008 23.0393 27.8672H23.3527C23.3527 27.9353 23.3754 27.9853 23.4117 28.0216C23.448 28.0579 23.5071 28.0761 23.5843 28.0761C23.6615 28.0761 23.716 28.0579 23.7569 28.0216C23.7977 27.9853 23.8159 27.9353 23.8204 27.8672H24.1338C24.1338 28.008 24.0884 28.1124 23.9976 28.1896C23.9067 28.2668 23.7705 28.3032 23.5843 28.3032Z" fill="#6B3BFF"/>
<path d="M30.374 30.4286V28.4303H32.1724V30.4286H31.7183V28.7028L31.8227 28.8073H30.7237L30.8281 28.7028V30.4286H30.374Z" fill="#6B3BFF"/>
<path d="M32.7265 30.4286V28.4303H33.1807V29.7292L34.1208 28.4303H34.5477V30.4286H34.0981V29.1297L33.158 30.4286H32.7265Z" fill="#6B3BFF"/>
<path d="M36.2871 30.0516L36.1872 30.1561V28.4303H36.6414V30.1561L36.5324 30.0516H37.368L37.259 30.1561V28.4303H37.7132V30.4286H35.1108V28.4303H35.565V30.1561L35.4605 30.0516H36.2871Z" fill="#6B3BFF"/>
<path d="M38.2719 30.4286V28.4303H38.726V29.7292L39.6661 28.4303H40.093V30.4286H39.6434V29.1297L38.7033 30.4286H38.2719Z" fill="#6B3BFF"/>
<path d="M47.4276 30.4604C47.2732 30.4604 47.1279 30.4332 46.9962 30.3832C46.8644 30.3333 46.7509 30.2606 46.651 30.1652C46.5556 30.0744 46.4784 29.9609 46.4239 29.8382C46.3694 29.7111 46.3422 29.5748 46.3422 29.4295C46.3422 29.2842 46.3694 29.1434 46.4239 29.0208C46.4784 28.8936 46.5511 28.7846 46.651 28.6938C46.7464 28.6029 46.8644 28.5303 46.9962 28.4758C47.1279 28.4213 47.2686 28.3986 47.4231 28.3986C47.5775 28.3986 47.7228 28.4258 47.8545 28.4758C47.9862 28.5257 48.0998 28.5984 48.1951 28.6938C48.2905 28.7891 48.3677 28.8936 48.4222 29.0208C48.4767 29.1434 48.504 29.2842 48.504 29.434C48.504 29.5839 48.4767 29.7202 48.4222 29.8473C48.3677 29.9745 48.2905 30.0835 48.1951 30.1743C48.0998 30.2652 47.9862 30.3378 47.8545 30.3878C47.7228 30.4377 47.582 30.4604 47.4276 30.4604ZM47.4231 30.0699C47.5093 30.0699 47.5911 30.0562 47.6683 30.0244C47.741 29.9927 47.8091 29.9518 47.8636 29.8927C47.9181 29.8337 47.9635 29.7701 47.9953 29.6884C48.0271 29.6112 48.0407 29.5249 48.0407 29.4295C48.0407 29.3341 48.0271 29.2478 47.9953 29.1706C47.9635 29.0934 47.9226 29.0253 47.8636 28.9663C47.8091 28.9072 47.741 28.8663 47.6683 28.8346C47.5911 28.8028 47.5139 28.7891 47.4231 28.7891C47.3368 28.7891 47.255 28.8028 47.1778 28.8346C47.1051 28.8663 47.037 28.9072 46.9825 28.9663C46.928 29.0253 46.8826 29.0889 46.8508 29.1706C46.819 29.2478 46.8054 29.3341 46.8054 29.4295C46.8054 29.5203 46.819 29.6066 46.8508 29.6884C46.8826 29.7701 46.9235 29.8337 46.9825 29.8927C47.037 29.9518 47.1051 29.9927 47.1778 30.0244C47.255 30.0517 47.3368 30.0699 47.4231 30.0699Z" fill="#6B3BFF"/>
<path d="M48.9218 30.4286V28.4303H50.5114V28.7982H49.3714V29.2069H49.9164C50.1526 29.2069 50.3342 29.2569 50.4614 29.3568C50.584 29.4567 50.6476 29.602 50.6476 29.7973C50.6476 29.9926 50.5795 30.147 50.4387 30.2606C50.2979 30.3696 50.1026 30.4241 49.8483 30.4241H48.9218V30.4286ZM49.376 30.0834H49.8301C49.9482 30.0834 50.0345 30.0607 50.0981 30.0153C50.1617 29.9699 50.1889 29.9018 50.1889 29.8109C50.1889 29.6384 50.0708 29.5475 49.8301 29.5475H49.376V30.0834Z" fill="#6B3BFF"/>
<path d="M52.2508 30.0516L52.1509 30.1561V28.4303H52.605V30.1561L52.496 30.0516H53.3317L53.2227 30.1561V28.4303H53.6769V30.4286H51.0745V28.4303H51.5287V30.1561L51.4242 30.0516H52.2508ZM53.5179 30.8419V30.3196L53.6269 30.4286H53.2136V30.0516H53.9448V30.8419H53.5179Z" fill="#6B3BFF"/>
<path d="M54.1174 30.4287L54.9984 28.4349H55.4481L56.3291 30.4287H55.8523L55.1301 28.6666H55.3118L54.5852 30.4287H54.1174ZM54.5579 30.0018L54.6805 29.6521H55.6933L55.8159 30.0018H54.5579Z" fill="#6B3BFF"/>
<path d="M56.6606 30.4286V28.4303H57.1148V29.7292L58.0549 28.4303H58.4818V30.4286H58.0322V29.1297L57.0921 30.4286H56.6606ZM57.569 28.3032C57.3828 28.3032 57.242 28.2668 57.1557 28.1896C57.0694 28.1124 57.024 28.008 57.024 27.8672H57.3373C57.3373 27.9353 57.36 27.9853 57.3964 28.0216C57.4327 28.0579 57.4918 28.0761 57.569 28.0761C57.6462 28.0761 57.7007 28.0579 57.7415 28.0216C57.7824 27.9853 57.8006 27.9353 57.8051 27.8672H58.1185C58.1185 28.008 58.0731 28.1124 57.9822 28.1896C57.8914 28.2668 57.7552 28.3032 57.569 28.3032Z" fill="#6B3BFF"/>
<path d="M59.9715 30.4604C59.8216 30.4604 59.6763 30.4332 59.5491 30.3832C59.4174 30.3333 59.3039 30.2606 59.2085 30.1698C59.1131 30.0789 59.0359 29.9654 58.986 29.8428C58.9315 29.7156 58.9042 29.5794 58.9042 29.4295C58.9042 29.2796 58.9315 29.1434 58.986 29.0162C59.0405 28.8891 59.1131 28.7801 59.2131 28.6892C59.3084 28.5984 59.422 28.5257 59.5537 28.4758C59.6854 28.4258 59.8262 28.3986 59.9806 28.3986C60.1532 28.3986 60.3076 28.4304 60.4438 28.4894C60.5801 28.5484 60.6982 28.6393 60.7935 28.7528L60.4983 29.0253C60.4302 28.9481 60.3575 28.8891 60.2713 28.8482C60.1895 28.8073 60.0987 28.7891 59.9988 28.7891C59.9079 28.7891 59.8216 28.8028 59.7444 28.8346C59.6672 28.8663 59.5991 28.9072 59.5446 28.9663C59.4901 29.0253 59.4447 29.0889 59.4129 29.1706C59.3811 29.2478 59.3675 29.3341 59.3675 29.4295C59.3675 29.5249 59.3811 29.6112 59.4129 29.6884C59.4447 29.7656 59.4856 29.8337 59.5446 29.8927C59.5991 29.9518 59.6672 29.9927 59.7444 30.0244C59.8216 30.0562 59.9079 30.0699 59.9988 30.0699C60.0987 30.0699 60.185 30.0517 60.2713 30.0108C60.353 29.9699 60.4302 29.9109 60.4983 29.8337L60.7935 30.1062C60.6982 30.2197 60.5846 30.3106 60.4438 30.3696C60.2985 30.4332 60.1441 30.4604 59.9715 30.4604Z" fill="#6B3BFF"/>
<path d="M62.2378 30.4287V29.7974L62.3513 29.8973H61.8109C61.6383 29.8973 61.493 29.8701 61.3703 29.811C61.2477 29.752 61.1524 29.6702 61.0842 29.5612C61.0206 29.4522 60.9843 29.3251 60.9843 29.1752C60.9843 29.0208 61.0206 28.8846 61.0888 28.7756C61.1569 28.6666 61.2568 28.5803 61.384 28.5212C61.5111 28.4622 61.661 28.4349 61.8336 28.4349H62.6829V30.4287H62.2378ZM60.9934 30.4287L61.4839 29.7157H61.9471L61.4748 30.4287H60.9934ZM62.2378 29.6475V28.6847L62.3513 28.8028H61.8518C61.72 28.8028 61.6247 28.8346 61.5566 28.8936C61.4884 28.9527 61.4521 29.0435 61.4521 29.1661C61.4521 29.2842 61.4839 29.3705 61.552 29.4341C61.6156 29.4977 61.7155 29.5295 61.8427 29.5295H62.3513L62.2378 29.6475Z" fill="#6B3BFF"/>
<path d="M21.1364 15.9319C21.4951 15.9319 21.7858 16.2225 21.7858 16.5813V22.1629C21.7858 22.5217 21.4951 22.8124 21.1364 22.8124H3.93284C3.57406 22.8124 3.28339 22.5217 3.28339 22.1629V16.5813C3.28339 16.2225 3.57406 15.9319 3.93284 15.9319H21.1364ZM21.1364 13.2296H3.93284C2.08442 13.2296 0.585693 14.7329 0.585693 16.5813V22.1629C0.585693 24.0113 2.08442 25.5101 3.93284 25.5101H21.1364C22.9848 25.5101 24.4835 24.0113 24.4835 22.1629V16.5813C24.488 14.7329 22.9893 13.2296 21.1364 13.2296Z" fill="#12005E"/>
<path d="M9.17388 32L7.25733 30.2924L5.33624 32V19.3699H9.17388V32Z" fill="#6B3BFF"/>
</g>
<defs>
<clipPath id="clip0_224_22976">
<rect width="62.1062" height="32" fill="white" transform="translate(0.585693)"/>
</clipPath>
</defs>
</svg>
