<svg width="16" height="14" viewBox="0 0 16 14" fill="none" xmlns="http://www.w3.org/2000/svg">
<path d="M7.99971 7.71422L7.71298 8.12383C7.88514 8.24434 8.11428 8.24434 8.28645 8.12383L7.99971 7.71422ZM2.28543 1.78564H13.714V0.785645H2.28543V1.78564ZM13.714 1.78564C14.2236 1.78564 14.6426 2.20464 14.6426 2.71422H15.6426C15.6426 1.65236 14.7759 0.785645 13.714 0.785645V1.78564ZM14.6426 2.71422V11.2856H15.6426V2.71422H14.6426ZM14.6426 11.2856C14.6426 11.7952 14.2236 12.2142 13.714 12.2142V13.2142C14.7759 13.2142 15.6426 12.3475 15.6426 11.2856H14.6426ZM13.714 12.2142H2.28543V13.2142H13.714V12.2142ZM2.28543 12.2142C1.77586 12.2142 1.35686 11.7952 1.35686 11.2856H0.356857C0.356857 12.3475 1.22357 13.2142 2.28543 13.2142V12.2142ZM1.35686 11.2856V2.71422H0.356857V11.2856H1.35686ZM1.35686 2.71422C1.35686 2.20464 1.77586 1.78564 2.28543 1.78564V0.785645C1.22357 0.785645 0.356857 1.65236 0.356857 2.71422H1.35686ZM14.8558 2.3046L7.71298 7.3046L8.28645 8.12383L15.4293 3.12383L14.8558 2.3046ZM8.28645 7.3046L1.14359 2.3046L0.570126 3.12383L7.71298 8.12383L8.28645 7.3046Z" fill="#1A1A1A" fill-opacity="0.5"/>
</svg>
