<svg width="18" height="18" viewBox="0 0 18 18" fill="none" xmlns="http://www.w3.org/2000/svg">
<path d="M16.5 1.5L11.1782 16.2373C11.1423 16.3157 11.0846 16.3821 11.012 16.4287C10.9395 16.4752 10.8551 16.5 10.7688 16.5C10.6826 16.5 10.5982 16.4752 10.5256 16.4287C10.4531 16.3821 10.3954 16.3157 10.3595 16.2373L7.49388 10.5061L1.76271 7.64054C1.68432 7.60462 1.6179 7.54694 1.57133 7.47438C1.52476 7.40181 1.5 7.31739 1.5 7.23117C1.5 7.14494 1.52476 7.06053 1.57133 6.98796C1.6179 6.91539 1.68432 6.85772 1.76271 6.8218L16.5 1.5Z" stroke="white" stroke-width="1.3" stroke-linecap="round" stroke-linejoin="round"/>
</svg>
