<svg width="20" height="20" viewBox="0 0 20 20" fill="none" xmlns="http://www.w3.org/2000/svg">
<path d="M3.57153 5.21432C3.29539 5.21432 3.07153 5.43818 3.07153 5.71432C3.07153 5.99046 3.29539 6.21432 3.57153 6.21432V5.21432ZM16.4287 6.21432C16.7048 6.21432 16.9287 5.99046 16.9287 5.71432C16.9287 5.43818 16.7048 5.21432 16.4287 5.21432V6.21432ZM15.0001 5.71432H15.5001C15.5001 5.43818 15.2762 5.21432 15.0001 5.21432V5.71432ZM5.0001 15.7143H4.5001H5.0001ZM6.64296 5.71432C6.64296 5.99046 6.86682 6.21432 7.14296 6.21432C7.4191 6.21432 7.64296 5.99046 7.64296 5.71432H6.64296ZM8.57153 2.85718V2.35718V2.85718ZM11.4287 2.85718V2.35718V2.85718ZM12.3572 5.71432C12.3572 5.99046 12.5811 6.21432 12.8572 6.21432C13.1334 6.21432 13.3572 5.99046 13.3572 5.71432H12.3572ZM9.07153 9.28575C9.07153 9.00961 8.84768 8.78575 8.57153 8.78575C8.29539 8.78575 8.07153 9.00961 8.07153 9.28575H9.07153ZM8.07153 13.5715C8.07153 13.8476 8.29539 14.0715 8.57153 14.0715C8.84768 14.0715 9.07153 13.8476 9.07153 13.5715H8.07153ZM11.9287 9.28575C11.9287 9.00961 11.7048 8.78575 11.4287 8.78575C11.1525 8.78575 10.9287 9.00961 10.9287 9.28575H11.9287ZM10.9287 13.5715C10.9287 13.8476 11.1525 14.0715 11.4287 14.0715C11.7048 14.0715 11.9287 13.8476 11.9287 13.5715H10.9287ZM3.57153 6.21432H5.0001V5.21432H3.57153V6.21432ZM5.0001 6.21432H16.4287V5.21432H5.0001V6.21432ZM14.5001 5.71432V15.7143H15.5001V5.71432H14.5001ZM14.5001 15.7143C14.5001 15.9606 14.4023 16.1968 14.2281 16.3709L14.9352 17.078C15.2969 16.7163 15.5001 16.2258 15.5001 15.7143H14.5001ZM14.2281 16.3709C14.054 16.5451 13.8178 16.6429 13.5715 16.6429V17.6429C14.083 17.6429 14.5736 17.4397 14.9352 17.078L14.2281 16.3709ZM13.5715 16.6429H6.42868V17.6429H13.5715V16.6429ZM6.42868 16.6429C6.1824 16.6429 5.94622 16.5451 5.77208 16.3709L5.06497 17.078C5.42665 17.4397 5.91719 17.6429 6.42868 17.6429V16.6429ZM5.77208 16.3709C5.59794 16.1968 5.5001 15.9606 5.5001 15.7143H4.5001C4.5001 16.2258 4.70329 16.7163 5.06497 17.078L5.77208 16.3709ZM5.5001 15.7143V5.71432H4.5001V15.7143H5.5001ZM5.0001 6.21432H15.0001V5.21432H5.0001V6.21432ZM7.64296 5.71432V4.28575H6.64296V5.71432H7.64296ZM7.64296 4.28575C7.64296 4.03948 7.74079 3.80329 7.91493 3.62915L7.20783 2.92204C6.84615 3.28372 6.64296 3.77426 6.64296 4.28575H7.64296ZM7.91493 3.62915C8.08908 3.45501 8.32526 3.35718 8.57153 3.35718V2.35718C8.06004 2.35718 7.5695 2.56037 7.20783 2.92204L7.91493 3.62915ZM8.57153 3.35718H11.4287V2.35718H8.57153V3.35718ZM11.4287 3.35718C11.6749 3.35718 11.9111 3.45501 12.0853 3.62915L12.7924 2.92204C12.4307 2.56037 11.9402 2.35718 11.4287 2.35718V3.35718ZM12.0853 3.62915C12.2594 3.80329 12.3572 4.03948 12.3572 4.28575H13.3572C13.3572 3.77426 13.1541 3.28372 12.7924 2.92204L12.0853 3.62915ZM12.3572 4.28575V5.71432H13.3572V4.28575H12.3572ZM8.07153 9.28575V13.5715H9.07153V9.28575H8.07153ZM10.9287 9.28575V13.5715H11.9287V9.28575H10.9287Z" fill="#1A1A1A" fill-opacity="0.5"/>
</svg>
