<svg width="28" height="29" viewBox="0 0 28 29" fill="none" xmlns="http://www.w3.org/2000/svg">
<path fill-rule="evenodd" clip-rule="evenodd" d="M14 28.5C21.732 28.5 28 22.232 28 14.5C28 6.76801 21.732 0.5 14 0.5C6.26801 0.5 0 6.76801 0 14.5C0 22.232 6.26801 28.5 14 28.5ZM9.0528 9.55183C10.3651 8.23978 12.1443 7.50188 14 7.50002C14.9197 7.49773 15.8307 7.67794 16.6802 8.03021C17.5298 8.38248 18.301 8.8998 18.9492 9.55223C19.6008 10.2011 20.1171 10.9727 20.4684 11.8225C20.8197 12.6723 20.999 13.5833 20.9958 14.5028C20.9928 16.3579 20.2544 18.1362 18.9426 19.4478C17.6307 20.7594 15.8523 21.4974 13.9972 21.5H13.9958C12.7421 21.5009 11.5114 21.1644 10.4325 20.5259L10.1781 20.3741L7.52852 21.0685L8.23554 18.4863L8.06968 18.2221C7.36968 17.1074 6.9986 15.8199 7 14.4986C7.00224 12.6429 7.74049 10.8639 9.0528 9.55183ZM16.696 18.5046C17.0994 18.4442 17.9399 17.9972 18.1156 17.5052C18.2899 17.0133 18.2899 16.593 18.2393 16.5058C18.1963 16.4344 18.0957 16.3859 17.9493 16.3153C17.9141 16.2983 17.8763 16.28 17.8359 16.2598C17.6265 16.1544 16.592 15.647 16.3994 15.5753C16.2054 15.5064 16.0663 15.4713 15.9257 15.6821C15.7851 15.8916 15.3817 16.3639 15.2594 16.5058C15.1357 16.6478 15.0134 16.6633 14.8026 16.5592C14.7669 16.541 14.7175 16.5195 14.6561 16.4927C14.3578 16.3627 13.7771 16.1094 13.1102 15.5149C12.4861 14.9568 12.0645 14.2667 11.9408 14.0572C11.8185 13.8464 11.9281 13.7325 12.0335 13.6285C12.1002 13.5608 12.1783 13.4656 12.255 13.3718C12.2867 13.3332 12.3181 13.2949 12.3484 13.2588C12.4398 13.153 12.4777 13.075 12.5307 12.9658C12.5397 12.9473 12.5491 12.928 12.5592 12.9074C12.6281 12.7669 12.593 12.6432 12.541 12.5392C12.5061 12.4686 12.3054 11.9811 12.1239 11.5401C12.0344 11.3228 11.9496 11.1167 11.8916 10.9775C11.7409 10.614 11.5881 10.6155 11.4652 10.6166C11.4494 10.6168 11.4341 10.6169 11.4193 10.6163C11.2956 10.6107 11.1564 10.6093 11.0159 10.6093C10.9092 10.6118 10.8042 10.6364 10.7075 10.6814C10.6107 10.7264 10.5243 10.7908 10.4536 10.8707C10.4412 10.8843 10.4273 10.8991 10.4123 10.9152C10.1934 11.1493 9.71847 11.6571 9.71847 12.6263C9.71847 13.6455 10.4496 14.6319 10.5708 14.7954L10.5759 14.8022C10.5831 14.8118 10.596 14.8302 10.6145 14.8567C10.8711 15.2241 12.2021 17.1293 14.1715 17.9789C14.563 18.1478 14.9632 18.2956 15.3705 18.4217C15.7998 18.5525 16.2537 18.5809 16.696 18.5046Z" fill="#171D25"/>
</svg>
