<svg width="28" height="29" viewBox="0 0 28 29" fill="none" xmlns="http://www.w3.org/2000/svg">
<path d="M16.2438 14.2663L13.0994 12.7991C12.825 12.6717 12.5996 12.8145 12.5996 13.1183V15.8819C12.5996 16.1857 12.825 16.3285 13.0994 16.2011L16.2424 14.7339C16.5182 14.6051 16.5182 14.3951 16.2438 14.2663ZM13.9996 1.06006C6.57677 1.06006 0.55957 7.07726 0.55957 14.5001C0.55957 21.9229 6.57677 27.9401 13.9996 27.9401C21.4224 27.9401 27.4396 21.9229 27.4396 14.5001C27.4396 7.07726 21.4224 1.06006 13.9996 1.06006ZM13.9996 19.9601C7.11997 19.9601 6.99957 19.3399 6.99957 14.5001C6.99957 9.66026 7.11997 9.04006 13.9996 9.04006C20.8792 9.04006 20.9996 9.66026 20.9996 14.5001C20.9996 19.3399 20.8792 19.9601 13.9996 19.9601Z" fill="#171D25"/>
</svg>
