<svg width="226" height="116" viewBox="0 0 226 116" fill="none" xmlns="http://www.w3.org/2000/svg">
<g clip-path="url(#clip0_224_22659)">
<path d="M31.2143 21.1882H40.1538V38.3429C37.8655 40.0715 35.1984 41.4051 32.1856 42.327C29.1729 43.2489 26.1272 43.7099 23.065 43.7099C18.6693 43.7099 14.7346 42.7715 11.2279 40.8947C7.72126 39.0179 4.9719 36.4332 2.97985 33.1076C0.987794 29.7985 0 26.0448 0 21.8632C0 17.6815 0.987795 13.9279 2.99631 10.6023C4.98836 7.27675 7.75419 4.67556 11.2938 2.79875C14.8334 0.938405 18.8175 0 23.2461 0C26.9503 0 30.3088 0.625603 33.3216 1.87681C36.3344 3.12802 38.8697 4.93897 40.9276 7.30968L34.6551 13.1047C31.6423 9.92734 27.9875 8.3304 23.7235 8.3304C21.0236 8.3304 18.6364 8.89015 16.5456 10.0261C14.4547 11.1621 12.8249 12.7425 11.656 14.8005C10.4871 16.8584 9.91087 19.2126 9.91087 21.8632C9.91087 24.4808 10.4871 26.8186 11.656 28.8601C12.8249 30.918 14.4383 32.5149 16.5126 33.6673C18.587 34.8198 20.9577 35.396 23.6083 35.396C26.4235 35.396 28.9588 34.7868 31.2143 33.585V21.1882Z" fill="white"/>
<path d="M76.1425 42.9855L67.9932 31.2143H59.0043V42.9855H49.2251V0.724365H67.4993C71.2365 0.724365 74.4962 1.34997 77.2456 2.60117C79.9949 3.85238 82.1187 5.61395 83.6168 7.9188C85.0985 10.2072 85.8558 12.9236 85.8558 16.0681C85.8558 19.2126 85.0985 21.9126 83.5839 24.1845C82.0693 26.4564 79.9291 28.2015 77.1468 29.4033L86.6296 42.9855H76.1425ZM73.6566 10.6023C72.1255 9.33464 69.8865 8.69257 66.956 8.69257H58.9878V23.4272H66.956C69.8865 23.4272 72.1255 22.7851 73.6566 21.501C75.1877 20.2168 75.945 18.4059 75.945 16.0681C75.9614 13.6809 75.1877 11.87 73.6566 10.6023Z" fill="white"/>
<path d="M124.495 33.9307H104.706L100.936 42.9855H90.8277L109.81 0.724365H119.556L138.604 42.9855H128.249L124.495 33.9307ZM121.383 26.5058L114.634 10.3224L107.884 26.5058H121.383Z" fill="white"/>
<path d="M171.333 2.60117C174.082 3.85238 176.206 5.61395 177.704 7.9188C179.186 10.2072 179.943 12.9236 179.943 16.0681C179.943 19.1632 179.202 21.8796 177.704 24.1845C176.222 26.5058 174.099 28.2674 171.333 29.5021C168.583 30.7369 165.324 31.346 161.587 31.346H153.075V43.002H143.296V0.724365H161.587C165.324 0.724365 168.567 1.34997 171.333 2.60117ZM167.744 21.468C169.275 20.2004 170.032 18.4059 170.032 16.0681C170.032 13.6974 169.275 11.87 167.744 10.6023C166.213 9.33464 163.974 8.69257 161.043 8.69257H153.075V23.3613H161.043C163.974 23.3613 166.213 22.7357 167.744 21.468Z" fill="white"/>
<path d="M225.036 0.724365V42.9855H215.257V25.6662H196.061V42.9855H186.282V0.724365H196.061V17.3852H215.257V0.724365H225.036Z" fill="white"/>
<path d="M138.834 48.4185L119.819 92.3424H109.777L90.8277 48.4185H101.809L115.177 79.7809L128.726 48.4185H138.834Z" fill="white"/>
<path d="M177.293 84.1766V92.3424H143.28V48.4185H176.486V56.5678H153.388V66.1H173.786V74.0188H153.388V84.1766H177.293Z" fill="white"/>
<path d="M214.203 92.3424L205.725 80.1102H196.374V92.3424H186.199V48.4185H205.214C209.1 48.4185 212.491 49.0605 215.356 50.3611C218.22 51.6617 220.426 53.5056 221.974 55.8763C223.522 58.2635 224.295 61.0787 224.295 64.3549C224.295 67.6146 223.505 70.4298 221.941 72.8005C220.377 75.1712 218.138 76.9657 215.257 78.2334L225.102 92.3588H214.203M211.619 58.6751C210.022 57.358 207.7 56.6995 204.655 56.6995H196.374V72.0103H204.655C207.7 72.0103 210.038 71.3353 211.619 70.0018C213.216 68.6682 214.006 66.775 214.006 64.3549C214.006 61.8854 213.216 59.9921 211.619 58.6751Z" fill="white"/>
<path d="M53.2091 107.604C52.8469 107.752 52.5177 107.851 52.1884 107.933C51.8591 107.999 51.5463 108.048 51.25 108.048C50.2951 108.048 49.5543 107.818 49.0439 107.357C48.5336 106.896 48.2701 106.221 48.2701 105.348V103.06H49.9V105.134C49.9 105.628 50.0317 106.007 50.2951 106.254C50.5585 106.501 50.9372 106.632 51.4311 106.632C51.7439 106.632 52.0402 106.599 52.3366 106.517C52.6329 106.451 52.8963 106.336 53.1597 106.204L53.2091 107.604ZM52.9786 110.304V103.06H54.6085V110.304H52.9786Z" fill="white"/>
<path d="M56.6335 110.304V103.06H58.2798V107.768L61.6877 103.06H63.2352V110.304H61.6054V105.595L58.1975 110.304H56.6335Z" fill="white"/>
<path d="M66.8077 110.304V104.048L67.1863 104.426H64.5357V103.06H70.7259V104.426H68.0753L68.4375 104.048V110.304H66.8077Z" fill="white"/>
<path d="M70.8742 110.304L74.0516 103.076H75.6814L78.8753 110.304H77.1467L74.529 103.916H75.1875L72.5699 110.304H70.8742ZM72.4546 108.756L72.8992 107.488H76.5705L77.015 108.756H72.4546Z" fill="white"/>
<path d="M80.077 110.304V103.06H81.7233V107.768L85.1312 103.06H86.6787V110.304H85.0489V105.595L81.641 110.304H80.077ZM83.3696 102.599C82.6946 102.599 82.1843 102.467 81.8715 102.187C81.5587 101.907 81.394 101.529 81.394 101.018H82.53C82.53 101.265 82.6123 101.446 82.744 101.578C82.8757 101.71 83.0897 101.776 83.3696 101.776C83.6495 101.776 83.847 101.71 83.9952 101.578C84.1434 101.446 84.2092 101.265 84.2257 101.018H85.3617C85.3617 101.529 85.197 101.907 84.8678 102.187C84.5385 102.467 84.0446 102.599 83.3696 102.599Z" fill="white"/>
<path d="M107.982 110.304V103.06H114.502V110.304H112.855V104.048L113.234 104.426H109.25L109.629 104.048V110.304H107.982Z" fill="white"/>
<path d="M116.51 110.304V103.06H118.156V107.768L121.564 103.06H123.112V110.304H121.482V105.595L118.074 110.304H116.51Z" fill="white"/>
<path d="M129.417 108.937L129.055 109.316V103.06H130.701V109.316L130.306 108.937H133.335L132.94 109.316V103.06H134.587V110.304H125.153V103.06H126.799V109.316L126.421 108.937H129.417Z" fill="white"/>
<path d="M136.612 110.304V103.06H138.258V107.768L141.666 103.06H143.214V110.304H141.584V105.595L138.176 110.304H136.612Z" fill="white"/>
<path d="M169.802 110.419C169.242 110.419 168.715 110.32 168.238 110.139C167.76 109.958 167.349 109.695 166.987 109.349C166.641 109.02 166.361 108.608 166.164 108.164C165.966 107.703 165.867 107.209 165.867 106.682C165.867 106.155 165.966 105.645 166.164 105.2C166.361 104.739 166.625 104.344 166.987 104.015C167.332 103.686 167.76 103.422 168.238 103.225C168.715 103.027 169.226 102.945 169.785 102.945C170.345 102.945 170.872 103.043 171.349 103.225C171.827 103.406 172.238 103.669 172.584 104.015C172.93 104.361 173.21 104.739 173.407 105.2C173.605 105.645 173.704 106.155 173.704 106.698C173.704 107.242 173.605 107.736 173.407 108.196C173.21 108.657 172.93 109.053 172.584 109.382C172.238 109.711 171.827 109.975 171.349 110.156C170.872 110.337 170.362 110.419 169.802 110.419ZM169.785 109.003C170.098 109.003 170.395 108.954 170.674 108.839C170.938 108.723 171.185 108.575 171.382 108.361C171.58 108.147 171.745 107.917 171.86 107.62C171.975 107.34 172.024 107.028 172.024 106.682C172.024 106.336 171.975 106.023 171.86 105.743C171.745 105.464 171.596 105.217 171.382 105.003C171.185 104.789 170.938 104.64 170.674 104.525C170.395 104.41 170.115 104.361 169.785 104.361C169.473 104.361 169.176 104.41 168.896 104.525C168.633 104.64 168.386 104.789 168.189 105.003C167.991 105.217 167.826 105.447 167.711 105.743C167.596 106.023 167.546 106.336 167.546 106.682C167.546 107.011 167.596 107.324 167.711 107.62C167.826 107.917 167.975 108.147 168.189 108.361C168.386 108.575 168.633 108.723 168.896 108.839C169.176 108.937 169.473 109.003 169.785 109.003Z" fill="white"/>
<path d="M175.218 110.304V103.06H180.98V104.393H176.848V105.875H178.824C179.68 105.875 180.338 106.056 180.799 106.418C181.244 106.781 181.474 107.307 181.474 108.015C181.474 108.723 181.227 109.283 180.717 109.694C180.207 110.09 179.499 110.287 178.577 110.287H175.218V110.304ZM176.865 109.052H178.511C178.939 109.052 179.252 108.97 179.482 108.805C179.713 108.641 179.811 108.394 179.811 108.065C179.811 107.439 179.383 107.11 178.511 107.11H176.865V109.052Z" fill="white"/>
<path d="M187.286 108.937L186.924 109.316V103.06H188.57V109.316L188.175 108.937H191.204L190.809 109.316V103.06H192.455V110.304H183.022V103.06H184.668V109.316L184.289 108.937H187.286ZM191.879 111.802V109.909L192.274 110.304H190.776V108.937H193.427V111.802H191.879Z" fill="white"/>
<path d="M194.052 110.304L197.246 103.076H198.876L202.07 110.304H200.341L197.723 103.916H198.382L195.748 110.304H194.052ZM195.649 108.756L196.094 107.488H199.765L200.209 108.756H195.649Z" fill="white"/>
<path d="M203.272 110.304V103.06H204.918V107.768L208.326 103.06H209.873V110.304H208.244V105.595L204.836 110.304H203.272ZM206.564 102.599C205.889 102.599 205.379 102.467 205.066 102.187C204.753 101.907 204.589 101.529 204.589 101.018H205.725C205.725 101.265 205.807 101.446 205.939 101.578C206.07 101.71 206.284 101.776 206.564 101.776C206.844 101.776 207.042 101.71 207.19 101.578C207.338 101.446 207.404 101.265 207.42 101.018H208.556C208.556 101.529 208.392 101.907 208.063 102.187C207.733 102.467 207.239 102.599 206.564 102.599Z" fill="white"/>
<path d="M215.273 110.419C214.73 110.419 214.203 110.32 213.742 110.139C213.265 109.958 212.853 109.695 212.508 109.365C212.162 109.036 211.882 108.625 211.701 108.18C211.503 107.719 211.405 107.225 211.405 106.682C211.405 106.139 211.503 105.645 211.701 105.184C211.898 104.723 212.162 104.328 212.524 103.998C212.87 103.669 213.281 103.406 213.759 103.225C214.236 103.043 214.747 102.945 215.306 102.945C215.932 102.945 216.492 103.06 216.986 103.274C217.479 103.488 217.907 103.817 218.253 104.229L217.183 105.217C216.936 104.937 216.673 104.723 216.36 104.575C216.064 104.426 215.734 104.361 215.372 104.361C215.043 104.361 214.73 104.41 214.45 104.525C214.17 104.64 213.923 104.789 213.726 105.003C213.528 105.217 213.364 105.447 213.248 105.743C213.133 106.023 213.084 106.336 213.084 106.682C213.084 107.028 213.133 107.34 213.248 107.62C213.364 107.9 213.512 108.147 213.726 108.361C213.923 108.575 214.17 108.723 214.45 108.839C214.73 108.954 215.043 109.003 215.372 109.003C215.734 109.003 216.047 108.937 216.36 108.789C216.656 108.641 216.936 108.427 217.183 108.147L218.253 109.135C217.907 109.546 217.496 109.876 216.986 110.09C216.459 110.32 215.899 110.419 215.273 110.419Z" fill="white"/>
<path d="M223.489 110.304V108.015L223.9 108.377H221.941C221.315 108.377 220.789 108.279 220.344 108.065C219.9 107.851 219.554 107.554 219.307 107.159C219.077 106.764 218.945 106.303 218.945 105.76C218.945 105.2 219.076 104.706 219.323 104.311C219.57 103.916 219.933 103.603 220.394 103.389C220.855 103.175 221.398 103.076 222.023 103.076H225.102V110.304H223.489ZM218.978 110.304L220.756 107.719H222.435L220.723 110.304H218.978ZM223.489 107.472V103.982L223.9 104.41H222.089C221.612 104.41 221.266 104.525 221.019 104.739C220.772 104.953 220.641 105.282 220.641 105.727C220.641 106.155 220.756 106.468 221.003 106.698C221.233 106.929 221.595 107.044 222.056 107.044H223.9L223.489 107.472Z" fill="white"/>
<path d="M74.4962 57.7532C75.7968 57.7532 76.8504 58.8068 76.8504 60.1074V80.3407C76.8504 81.6413 75.7968 82.695 74.4962 82.695H12.1334C10.8328 82.695 9.77917 81.6413 9.77917 80.3407V60.1074C9.77917 58.8068 10.8328 57.7532 12.1334 57.7532H74.4962ZM74.4962 47.9575H12.1334C5.43287 47.9575 0 53.4069 0 60.1074V80.3407C0 87.0413 5.43287 92.4741 12.1334 92.4741H74.4962C81.1967 92.4741 86.6296 87.0413 86.6296 80.3407V60.1074C86.646 53.4069 81.2132 47.9575 74.4962 47.9575Z" fill="white"/>
<path d="M31.132 116L24.1845 109.81L17.2205 116V70.2157H31.132V116Z" fill="white"/>
</g>
<defs>
<clipPath id="clip0_224_22659">
<rect width="225.135" height="116" fill="white"/>
</clipPath>
</defs>
</svg>
